<svg xmlns="http://www.w3.org/2000/svg" width="1500" height="1050" viewBox="0 0 1500 1050" role="img" aria-label="Crypto Mock AWS EKS Architecture">
<defs>
  <marker id="a" markerWidth="8" markerHeight="6" refX="7" refY="3" orient="auto"><polygon points="0 0,8 3,0 6" fill="#4B5563"/></marker>
  <marker id="ao" markerWidth="8" markerHeight="6" refX="7" refY="3" orient="auto"><polygon points="0 0,8 3,0 6" fill="#D97706"/></marker>
  <marker id="ab" markerWidth="8" markerHeight="6" refX="7" refY="3" orient="auto"><polygon points="0 0,8 3,0 6" fill="#1D4ED8"/></marker>
  <marker id="ag" markerWidth="8" markerHeight="6" refX="7" refY="3" orient="auto"><polygon points="0 0,8 3,0 6" fill="#15803D"/></marker>
  <marker id="ap" markerWidth="8" markerHeight="6" refX="7" refY="3" orient="auto"><polygon points="0 0,8 3,0 6" fill="#7C3AED"/></marker>
  <marker id="ar" markerWidth="8" markerHeight="6" refX="7" refY="3" orient="auto"><polygon points="0 0,8 3,0 6" fill="#DC2626"/></marker>
  <filter id="sh"><feDropShadow dx="0" dy="2" stdDeviation="3" flood-opacity="0.10"/></filter>
</defs>

<!-- Background -->
<rect width="1500" height="1050" fill="#EAECEF"/>
<text x="750" y="32" text-anchor="middle" font-family="Arial,sans-serif" font-size="19" font-weight="bold" fill="#111827">Crypto Mock on AWS — EKS / VPC Architecture</text>
<text x="750" y="49" text-anchor="middle" font-family="Arial,sans-serif" font-size="10" fill="#6B7280">ap-northeast-2 · cluster: crypto-mock · k8s 1.30 · EKS Managed Nodes t3.medium×2 · External MariaDB 11.4 on EC2</text>

<!-- ============================================================ LEFT PANEL -->
<rect x="5" y="58" width="172" height="982" rx="10" fill="white" stroke="#D1D5DB" stroke-width="1.5" filter="url(#sh)"/>
<rect x="5" y="58" width="172" height="22" rx="10" fill="#1F2937"/>
<rect x="5" y="70" width="172" height="10" fill="#1F2937"/>
<text x="91" y="73" text-anchor="middle" font-family="Arial,sans-serif" font-size="10" font-weight="bold" fill="white">Actors</text>

<!-- Developer -->
<circle cx="36" cy="112" r="13" fill="#E5E7EB"/>
<circle cx="36" cy="105" r="6" fill="#6B7280"/>
<path d="M22,124 Q36,115 50,124" fill="#6B7280"/>
<text x="58" y="108" font-family="Arial,sans-serif" font-size="9" font-weight="bold" fill="#111827">Developer</text>
<text x="58" y="119" font-family="Arial,sans-serif" font-size="8" fill="#6B7280">git push</text>
<line x1="12" y1="133" x2="168" y2="133" stroke="#E5E7EB" stroke-width="1"/>

<!-- GitHub -->
<rect x="10" y="139" width="152" height="58" rx="7" fill="#24292E"/>
<circle cx="33" cy="168" r="12" fill="white"/>
<path d="M33,158 a10,10 0 0 1 5,18 l0,3 l-5,-2.5 l-5,2.5 l0,-3 a10,10 0 0 1 5,-18 z" fill="#24292E"/>
<text x="52" y="164" font-family="Arial,sans-serif" font-size="9" font-weight="bold" fill="white">GitHub</text>
<text x="52" y="176" font-family="Arial,sans-serif" font-size="8" fill="#8B949E">edumgt/stock-coin-trade</text>
<text x="52" y="188" font-family="Arial,sans-serif" font-size="7.5" fill="#58A6FF">main branch</text>

<!-- GitHub Actions -->
<rect x="10" y="204" width="152" height="58" rx="7" fill="#0D1117" stroke="#30363D" stroke-width="1"/>
<circle cx="33" cy="233" r="10" fill="none" stroke="#1F6FEB" stroke-width="2"/>
<circle cx="33" cy="233" r="3.5" fill="#1F6FEB"/>
<line x1="33" y1="223" x2="33" y2="220" stroke="#1F6FEB" stroke-width="1.5"/>
<line x1="33" y1="243" x2="33" y2="246" stroke="#1F6FEB" stroke-width="1.5"/>
<line x1="23" y1="233" x2="20" y2="233" stroke="#1F6FEB" stroke-width="1.5"/>
<line x1="43" y1="233" x2="46" y2="233" stroke="#1F6FEB" stroke-width="1.5"/>
<text x="52" y="229" font-family="Arial,sans-serif" font-size="9" font-weight="bold" fill="white">GitHub Actions</text>
<text x="52" y="241" font-family="Arial,sans-serif" font-size="8" fill="#8B949E">CI/CD Pipeline</text>
<text x="52" y="253" font-family="Arial,sans-serif" font-size="7.5" fill="#8B949E">deploy.sh</text>

<!-- Deploy steps -->
<rect x="10" y="270" width="152" height="148" rx="7" fill="#EFF6FF" stroke="#BFDBFE" stroke-width="1"/>
<text x="86" y="284" text-anchor="middle" font-family="Arial,sans-serif" font-size="9" font-weight="bold" fill="#1D4ED8">Deploy Flow</text>
<text x="16" y="298" font-family="Arial,sans-serif" font-size="8" fill="#1E3A5F">① aws ecr get-login-password</text>
<text x="16" y="311" font-family="Arial,sans-serif" font-size="8" fill="#1E3A5F">② docker build (×3 services)</text>
<text x="16" y="324" font-family="Arial,sans-serif" font-size="8" fill="#1E3A5F">③ docker push ECR (×3)</text>
<text x="16" y="337" font-family="Arial,sans-serif" font-size="8" fill="#1E3A5F">④ eksctl create cluster</text>
<text x="16" y="350" font-family="Arial,sans-serif" font-size="8" fill="#1E3A5F">⑤ helm install aws-lbc</text>
<text x="16" y="363" font-family="Arial,sans-serif" font-size="8" fill="#1E3A5F">⑥ kubectl apply -k k8s/eks/</text>
<line x1="16" y1="372" x2="154" y2="372" stroke="#BFDBFE" stroke-width="1"/>
<text x="16" y="383" font-family="Arial,sans-serif" font-size="7.5" fill="#6B7280">• frontend-crypto-mock</text>
<text x="16" y="394" font-family="Arial,sans-serif" font-size="7.5" fill="#6B7280">• java-crypto-mock</text>
<text x="16" y="405" font-family="Arial,sans-serif" font-size="7.5" fill="#6B7280">• python-crypto-mock</text>
<line x1="12" y1="428" x2="168" y2="428" stroke="#E5E7EB" stroke-width="1"/>

<!-- Internet User -->
<circle cx="36" cy="458" r="13" fill="#E5E7EB"/>
<circle cx="36" cy="451" r="6" fill="#6B7280"/>
<path d="M22,470 Q36,461 50,470" fill="#6B7280"/>
<text x="58" y="454" font-family="Arial,sans-serif" font-size="9" font-weight="bold" fill="#111827">Internet User</text>
<text x="58" y="466" font-family="Arial,sans-serif" font-size="8" fill="#1D4ED8">HTTP :80</text>
<text x="58" y="478" font-family="Arial,sans-serif" font-size="7.5" fill="#6B7280">Browser / Mobile</text>

<!-- ============================================================ AWS CLOUD -->
<rect x="184" y="58" width="1308" height="982" rx="13" fill="white" stroke="#FF9900" stroke-width="2.5" stroke-dasharray="10,5" filter="url(#sh)"/>
<rect x="184" y="50" width="200" height="20" rx="5" fill="#232F3E"/>
<text x="284" y="64" text-anchor="middle" font-family="Arial,sans-serif" font-size="10" fill="white"><tspan font-weight="bold" fill="#FF9900">aws</tspan>  Cloud · ap-northeast-2</text>

<!-- ============================================================ AWS SERVICES (top-right) -->
<rect x="1094" y="72" width="390" height="282" rx="10" fill="#FFFAF0" stroke="#F6AD55" stroke-width="1.5" stroke-dasharray="6,3"/>
<rect x="1094" y="64" width="115" height="18" rx="4" fill="#B7791F"/>
<text x="1151" y="77" text-anchor="middle" font-family="Arial,sans-serif" font-size="9" font-weight="bold" fill="white">AWS Services</text>

<!-- ECR icon (orange square + container grid) -->
<rect x="1106" y="83" width="40" height="40" rx="7" fill="#FF9900"/>
<rect x="1114" y="91" width="10" height="10" rx="2" fill="white" opacity="0.9"/>
<rect x="1128" y="91" width="10" height="10" rx="2" fill="white" opacity="0.9"/>
<rect x="1114" y="104" width="10" height="10" rx="2" fill="white" opacity="0.9"/>
<rect x="1128" y="104" width="10" height="10" rx="2" fill="white" opacity="0.5"/>
<text x="1153" y="97" font-family="Arial,sans-serif" font-size="10" font-weight="bold" fill="#7B341E">Amazon ECR</text>
<text x="1153" y="109" font-family="Arial,sans-serif" font-size="8.5" fill="#744210">Elastic Container Registry</text>
<text x="1153" y="121" font-family="Arial,sans-serif" font-size="8" fill="#9B4B04">account: 086015456585</text>

<!-- ECR repos list -->
<rect x="1106" y="131" width="370" height="62" rx="6" fill="#FEEBC8" stroke="#F6AD55" stroke-width="1"/>
<rect x="1113" y="139" width="8" height="8" rx="1" fill="#FF9900"/>
<text x="1126" y="147" font-family="Arial,sans-serif" font-size="8.5" fill="#7B341E">frontend-crypto-mock:latest</text>
<text x="1340" y="147" font-family="Arial,sans-serif" font-size="8" fill="#A0522D">Nginx :80</text>
<rect x="1113" y="151" width="8" height="8" rx="1" fill="#FF9900"/>
<text x="1126" y="159" font-family="Arial,sans-serif" font-size="8.5" fill="#7B341E">java-crypto-mock:latest</text>
<text x="1340" y="159" font-family="Arial,sans-serif" font-size="8" fill="#A0522D">Spring Boot :8080</text>
<rect x="1113" y="163" width="8" height="8" rx="1" fill="#FF9900"/>
<text x="1126" y="171" font-family="Arial,sans-serif" font-size="8.5" fill="#7B341E">python-crypto-mock:latest</text>
<text x="1340" y="171" font-family="Arial,sans-serif" font-size="8" fill="#A0522D">Flask :8200</text>
<text x="1113" y="185" font-family="Arial,sans-serif" font-size="7.5" fill="#9B4B04">dkr.ecr.ap-northeast-2.amazonaws.com / image pull via IRSA</text>

<!-- IAM / OIDC icon (red shield) -->
<rect x="1106" y="202" width="40" height="40" rx="7" fill="#DC2626"/>
<path d="M1126,209 l9,5 l0,13 l-9,7 l-9,-7 l0,-13 z" fill="white" opacity="0.9"/>
<circle cx="1126" cy="224" r="4" fill="#DC2626"/>
<text x="1153" y="217" font-family="Arial,sans-serif" font-size="10" font-weight="bold" fill="#7F1D1D">AWS IAM</text>
<text x="1153" y="229" font-family="Arial,sans-serif" font-size="8.5" fill="#742A2A">OIDC Provider</text>
<text x="1153" y="241" font-family="Arial,sans-serif" font-size="8.5" fill="#742A2A">IRSA for LBC ServiceAccount</text>

<!-- CloudWatch icon (pink/red) -->
<rect x="1106" y="252" width="40" height="40" rx="7" fill="#E8316E"/>
<circle cx="1126" cy="272" r="10" fill="none" stroke="white" stroke-width="2"/>
<circle cx="1126" cy="272" r="4" fill="white"/>
<path d="M1118,265 Q1126,258 1134,265" fill="none" stroke="white" stroke-width="1.5"/>
<text x="1153" y="267" font-family="Arial,sans-serif" font-size="10" font-weight="bold" fill="#831843">CloudWatch</text>
<text x="1153" y="279" font-family="Arial,sans-serif" font-size="8.5" fill="#831843">Logs &amp; Metrics</text>
<text x="1153" y="291" font-family="Arial,sans-serif" font-size="8" fill="#A0AEC0">(future integration)</text>

<!-- ============================================================ VPC -->
<rect x="194" y="72" width="890" height="960" rx="12" fill="#EBF8FF" stroke="#2B6CB0" stroke-width="2.5" stroke-dasharray="8,4"/>
<rect x="194" y="63" width="200" height="18" rx="5" fill="#2B6CB0"/>
<text x="294" y="76" text-anchor="middle" font-family="Arial,sans-serif" font-size="9" font-weight="bold" fill="white">Amazon VPC  ·  10.0.0.0/16</text>

<!-- ============================================================ PUBLIC SUBNET -->
<rect x="204" y="83" width="870" height="168" rx="10" fill="#E6FFFA" stroke="#00A3C4" stroke-width="1.5" stroke-dasharray="5,3"/>
<rect x="204" y="75" width="230" height="18" rx="4" fill="#0987A0"/>
<text x="319" y="88" text-anchor="middle" font-family="Arial,sans-serif" font-size="9" font-weight="bold" fill="white">Public Subnets  ·  ap-northeast-2c / 2b / 2d</text>

<!-- ALB card -->
<rect x="216" y="93" width="220" height="148" rx="9" fill="white" stroke="#F6AD55" stroke-width="1.5" filter="url(#sh)"/>
<rect x="226" y="103" width="38" height="38" rx="7" fill="#FF9900"/>
<circle cx="245" cy="122" r="7" fill="white" opacity="0.9"/>
<line x1="245" y1="115" x2="245" y2="110" stroke="white" stroke-width="2"/>
<line x1="245" y1="129" x2="238" y2="135" stroke="white" stroke-width="2"/>
<line x1="245" y1="129" x2="252" y2="135" stroke="white" stroke-width="2"/>
<circle cx="238" cy="137" r="2.5" fill="white" opacity="0.9"/>
<circle cx="252" cy="137" r="2.5" fill="white" opacity="0.9"/>
<text x="272" y="115" font-family="Arial,sans-serif" font-size="9" font-weight="bold" fill="#7B341E">Application Load Balancer</text>
<text x="272" y="128" font-family="Arial,sans-serif" font-size="8.5" fill="#744210">Internet-facing · HTTP :80</text>
<text x="272" y="140" font-family="Arial,sans-serif" font-size="8" fill="#744210">ingressClass: alb</text>
<line x1="226" y1="150" x2="428" y2="150" stroke="#FED7AA" stroke-width="1"/>
<text x="226" y="162" font-family="Arial,sans-serif" font-size="7.5" fill="#9B4B04">crypto-mock-alb-1037520365</text>
<text x="226" y="173" font-family="Arial,sans-serif" font-size="7.5" fill="#9B4B04">.ap-northeast-2.elb.amazonaws.com</text>
<text x="226" y="186" font-family="Arial,sans-serif" font-size="8" fill="#4B5563">/ → crypto-mock-frontend:80</text>
<text x="226" y="197" font-family="Arial,sans-serif" font-size="8" fill="#4B5563">/api → crypto-mock-app:80</text>
<text x="226" y="208" font-family="Arial,sans-serif" font-size="8" fill="#4B5563">IP mode (direct to pod)</text>
<text x="226" y="231" font-family="Arial,sans-serif" font-size="8" fill="#4B5563">healthcheck: /index.html, /api/member/me</text>

<!-- NAT Gateway card -->
<rect x="448" y="93" width="178" height="108" rx="9" fill="white" stroke="#F6AD55" stroke-width="1.5" filter="url(#sh)"/>
<rect x="458" y="103" width="38" height="38" rx="7" fill="#FF9900"/>
<circle cx="477" cy="122" r="9" fill="none" stroke="white" stroke-width="2"/>
<path d="M472,118 l5,-5 l5,5" fill="none" stroke="white" stroke-width="1.5"/>
<path d="M482,126 l-5,5 l-5,-5" fill="none" stroke="white" stroke-width="1.5"/>
<text x="504" y="115" font-family="Arial,sans-serif" font-size="9" font-weight="bold" fill="#7B341E">NAT Gateway</text>
<text x="504" y="128" font-family="Arial,sans-serif" font-size="8.5" fill="#744210">Outbound only</text>
<text x="504" y="141" font-family="Arial,sans-serif" font-size="8" fill="#9B4B04">1 per VPC (cost-opt)</text>
<text x="458" y="156" font-family="Arial,sans-serif" font-size="8" fill="#718096">ap-northeast-2c/b/d</text>
<text x="458" y="167" font-family="Arial,sans-serif" font-size="8" fill="#718096">Public subnets × 3</text>
<text x="458" y="178" font-family="Arial,sans-serif" font-size="8" fill="#718096">Elastic IP attached</text>

<!-- AWS LBC (Ingress Controller) card -->
<rect x="640" y="93" width="220" height="148" rx="9" fill="white" stroke="#93C5FD" stroke-width="1.5" filter="url(#sh)"/>
<rect x="650" y="103" width="38" height="38" rx="7" fill="#326CE5"/>
<!-- K8s wheel -->
<circle cx="669" cy="122" r="10" fill="none" stroke="white" stroke-width="2"/>
<circle cx="669" cy="122" r="4" fill="white"/>
<line x1="669" y1="112" x2="669" y2="109" stroke="white" stroke-width="1.5"/>
<line x1="669" y1="132" x2="669" y2="135" stroke="white" stroke-width="1.5"/>
<line x1="659" y1="122" x2="656" y2="122" stroke="white" stroke-width="1.5"/>
<line x1="679" y1="122" x2="682" y2="122" stroke="white" stroke-width="1.5"/>
<line x1="662" y1="115" x2="660" y2="113" stroke="white" stroke-width="1.5"/>
<line x1="676" y1="129" x2="678" y2="131" stroke="white" stroke-width="1.5"/>
<text x="696" y="115" font-family="Arial,sans-serif" font-size="9" font-weight="bold" fill="#1E3A8A">AWS LBC</text>
<text x="696" y="128" font-family="Arial,sans-serif" font-size="8.5" fill="#1E40AF">Load Balancer Controller</text>
<text x="696" y="140" font-family="Arial,sans-serif" font-size="8" fill="#3730A3">provisions ALB from Ingress</text>
<!-- IRSA badge -->
<rect x="650" y="148" width="40" height="16" rx="4" fill="#059669"/>
<text x="670" y="160" text-anchor="middle" font-family="Arial,sans-serif" font-size="8" font-weight="bold" fill="white">IRSA</text>
<text x="697" y="160" font-family="Arial,sans-serif" font-size="8" fill="#065F46">IAM Roles for Service Accounts</text>
<line x1="650" y1="170" x2="852" y2="170" stroke="#BFDBFE" stroke-width="1"/>
<text x="650" y="181" font-family="Arial,sans-serif" font-size="7.5" fill="#6B7280">kube-system namespace</text>
<text x="650" y="193" font-family="Arial,sans-serif" font-size="7.5" fill="#6B7280">helm: aws-load-balancer-controller</text>
<text x="650" y="205" font-family="Arial,sans-serif" font-size="7.5" fill="#6B7280">Target type: IP (pod direct routing)</text>
<text x="650" y="228" font-family="Arial,sans-serif" font-size="7.5" fill="#6B7280">ingressClassName: alb</text>
<text x="650" y="238" font-family="Arial,sans-serif" font-size="7.5" fill="#6B7280">scheme: internet-facing</text>

<!-- ============================================================ PRIVATE SUBNET -->
<rect x="204" y="262" width="870" height="762" rx="10" fill="#F7FAFC" stroke="#718096" stroke-width="1.5" stroke-dasharray="5,3"/>
<rect x="204" y="254" width="240" height="18" rx="4" fill="#4A5568"/>
<text x="324" y="267" text-anchor="middle" font-family="Arial,sans-serif" font-size="9" font-weight="bold" fill="white">Private Subnets  ·  ap-northeast-2c / 2b</text>

<!-- EKS Cluster boundary (green) -->
<rect x="214" y="272" width="850" height="744" rx="10" fill="#F0FFF4" stroke="#38A169" stroke-width="2"/>
<rect x="214" y="263" width="190" height="18" rx="4" fill="#276749"/>
<!-- EKS hexagon icon tiny -->
<polygon points="225,265 231,262 237,265 237,271 231,274 225,271" fill="#FF9900"/>
<text x="316" y="276" text-anchor="middle" font-family="Arial,sans-serif" font-size="9" font-weight="bold" fill="white">Amazon EKS  ·  crypto-mock  ·  k8s 1.30</text>

<!-- ============================================================ kube-system namespace -->
<rect x="224" y="285" width="295" height="378" rx="9" fill="#EBF4FF" stroke="#3B82F6" stroke-width="1.5" stroke-dasharray="5,2"/>
<rect x="224" y="277" width="100" height="17" rx="3" fill="#1D4ED8"/>
<text x="274" y="289" text-anchor="middle" font-family="Arial,sans-serif" font-size="8.5" font-weight="bold" fill="white">kube-system</text>

<!-- LBC pod -->
<rect x="234" y="298" width="275" height="82" rx="7" fill="white" stroke="#BFDBFE" stroke-width="1.2" filter="url(#sh)"/>
<rect x="243" y="308" width="30" height="30" rx="5" fill="#326CE5"/>
<circle cx="258" cy="323" r="7" fill="none" stroke="white" stroke-width="1.5"/>
<circle cx="258" cy="323" r="3" fill="white"/>
<line x1="258" y1="316" x2="258" y2="313" stroke="white" stroke-width="1.2"/>
<line x1="258" y1="330" x2="258" y2="333" stroke="white" stroke-width="1.2"/>
<line x1="251" y1="323" x2="248" y2="323" stroke="white" stroke-width="1.2"/>
<line x1="265" y1="323" x2="268" y2="323" stroke="white" stroke-width="1.2"/>
<text x="281" y="320" font-family="Arial,sans-serif" font-size="9" font-weight="bold" fill="#1E3A8A">aws-load-balancer-controller</text>
<text x="281" y="332" font-family="Arial,sans-serif" font-size="8.5" fill="#3730A3">Ingress → ALB provisioner</text>
<!-- IRSA badge -->
<rect x="243" y="345" width="38" height="15" rx="3" fill="#059669"/>
<text x="262" y="356" text-anchor="middle" font-family="Arial,sans-serif" font-size="7.5" font-weight="bold" fill="white">IRSA</text>
<text x="287" y="356" font-family="Arial,sans-serif" font-size="8" fill="#065F46">AmazonEKSLoadBalancerControllerRole</text>
<text x="243" y="374" font-family="Arial,sans-serif" font-size="7.5" fill="#6B7280">helm install aws-load-balancer-controller</text>

<!-- CoreDNS pod -->
<rect x="234" y="388" width="275" height="52" rx="7" fill="white" stroke="#BFDBFE" stroke-width="1.2"/>
<rect x="243" y="398" width="28" height="28" rx="5" fill="#326CE5"/>
<text x="243" y="408" font-family="Arial,sans-serif" font-size="8" fill="white" font-weight="bold"> DNS</text>
<text x="243" y="418" font-family="Arial,sans-serif" font-size="7" fill="white">core</text>
<text x="278" y="410" font-family="Arial,sans-serif" font-size="9" font-weight="bold" fill="#1E3A8A">CoreDNS</text>
<text x="278" y="422" font-family="Arial,sans-serif" font-size="8.5" fill="#4B5563">Cluster DNS  ·  addon</text>
<text x="278" y="434" font-family="Arial,sans-serif" font-size="8" fill="#6B7280">Service discovery for pods</text>

<!-- vpc-cni addon -->
<rect x="234" y="448" width="275" height="52" rx="7" fill="white" stroke="#BFDBFE" stroke-width="1.2"/>
<rect x="243" y="458" width="28" height="28" rx="5" fill="#4299E1"/>
<text x="244" y="470" font-family="Arial,sans-serif" font-size="7.5" fill="white" font-weight="bold"> VPC</text>
<text x="244" y="480" font-family="Arial,sans-serif" font-size="7" fill="white">CNI</text>
<text x="278" y="470" font-family="Arial,sans-serif" font-size="9" font-weight="bold" fill="#1E3A8A">amazon-vpc-cni</text>
<text x="278" y="482" font-family="Arial,sans-serif" font-size="8.5" fill="#4B5563">Pod IP from VPC CIDR  ·  addon</text>
<text x="278" y="494" font-family="Arial,sans-serif" font-size="8" fill="#6B7280">10.0.0.0/16 → Pod IPs</text>

<!-- EBS CSI Driver -->
<rect x="234" y="508" width="275" height="62" rx="7" fill="white" stroke="#BFDBFE" stroke-width="1.2"/>
<rect x="243" y="518" width="28" height="28" rx="5" fill="#FF9900"/>
<text x="244" y="529" font-family="Arial,sans-serif" font-size="7.5" fill="white" font-weight="bold"> EBS</text>
<text x="244" y="539" font-family="Arial,sans-serif" font-size="7" fill="white">CSI</text>
<text x="278" y="529" font-family="Arial,sans-serif" font-size="9" font-weight="bold" fill="#7B341E">aws-ebs-csi-driver</text>
<text x="278" y="541" font-family="Arial,sans-serif" font-size="8.5" fill="#4B5563">Block storage for PVC  ·  addon</text>
<!-- IRSA badge -->
<rect x="243" y="552" width="38" height="14" rx="3" fill="#059669"/>
<text x="262" y="562" text-anchor="middle" font-family="Arial,sans-serif" font-size="7.5" font-weight="bold" fill="white">IRSA</text>
<text x="287" y="562" font-family="Arial,sans-serif" font-size="8" fill="#065F46">AmazonEBSCSIDriverRole</text>

<!-- metrics-server -->
<rect x="234" y="578" width="275" height="42" rx="7" fill="white" stroke="#BFDBFE" stroke-width="1.2"/>
<rect x="243" y="587" width="28" height="25" rx="5" fill="#6366F1"/>
<text x="244" y="601" font-family="Arial,sans-serif" font-size="7.5" fill="white" font-weight="bold"> MTR</text>
<text x="278" y="596" font-family="Arial,sans-serif" font-size="9" font-weight="bold" fill="#3730A3">metrics-server</text>
<text x="278" y="608" font-family="Arial,sans-serif" font-size="8.5" fill="#4B5563">HPA / kubectl top  ·  addon</text>

<!-- kube-proxy note -->
<rect x="234" y="628" width="275" height="27" rx="5" fill="#EBF4FF" stroke="#93C5FD" stroke-width="1"/>
<text x="244" y="641" font-family="Arial,sans-serif" font-size="8" fill="#1D4ED8">kube-proxy  ·  coredns  ·  kube-proxy  (all as addons)</text>

<!-- ============================================================ crypto-mock namespace -->
<rect x="529" y="285" width="525" height="722" rx="9" fill="#F0FFF4" stroke="#38A169" stroke-width="1.5" stroke-dasharray="5,2"/>
<rect x="529" y="277" width="125" height="17" rx="3" fill="#276749"/>
<text x="591" y="289" text-anchor="middle" font-family="Arial,sans-serif" font-size="8.5" font-weight="bold" fill="white">crypto-mock</text>

<!-- ConfigMap / Secret note -->
<rect x="539" y="296" width="505" height="22" rx="4" fill="#DCFCE7" stroke="#86EFAC" stroke-width="1"/>
<text x="791" y="311" text-anchor="middle" font-family="Arial,sans-serif" font-size="8" fill="#14532D">ConfigMap: crypto-mock-config  ·  Secret: crypto-mock-secret  ·  SPRING_DATASOURCE_URL / PASSWORD / PYTHON_STOCK_API_BASE_URL</text>

<!-- ── NODE 1 ── -->
<rect x="539" y="324" width="232" height="672" rx="8" fill="white" stroke="#CBD5E0" stroke-width="1.2" filter="url(#sh)"/>
<!-- EC2 icon -->
<rect x="548" y="332" width="28" height="28" rx="5" fill="#FF9900"/>
<rect x="554" y="337" width="16" height="12" rx="2" fill="white" opacity="0.9"/>
<rect x="557" y="340" width="10" height="1.5" rx="0.5" fill="#FF9900"/>
<rect x="557" y="343" width="8" height="1.5" rx="0.5" fill="#FF9900"/>
<circle cx="562" cy="352" r="2" fill="white" opacity="0.9"/>
<text x="582" y="342" font-family="Arial,sans-serif" font-size="8.5" font-weight="bold" fill="#7B341E">Node 1 (t3.medium)</text>
<text x="582" y="353" font-family="Arial,sans-serif" font-size="7.5" fill="#718096">ip-10-0-157-48 · ap-northeast-2c</text>
<line x1="548" y1="366" x2="763" y2="366" stroke="#E5E7EB" stroke-width="1"/>

<!-- Frontend Pod (node1) -->
<rect x="548" y="372" width="214" height="88" rx="7" fill="#EBF8FF" stroke="#63B3ED" stroke-width="1.2"/>
<!-- Nginx icon: teal box with N -->
<rect x="556" y="380" width="28" height="28" rx="5" fill="#01A88D"/>
<text x="563" y="399" font-family="Arial,sans-serif" font-size="14" font-weight="bold" fill="white">N</text>
<text x="591" y="390" font-family="Arial,sans-serif" font-size="9" font-weight="bold" fill="#1D4ED8">Frontend Pod</text>
<text x="591" y="402" font-family="Arial,sans-serif" font-size="8.5" fill="#4B5563">Nginx :80 · Static HTML/JS</text>
<text x="591" y="413" font-family="Arial,sans-serif" font-size="7.5" fill="#718096">frontend-crypto-mock:latest</text>
<rect x="556" y="420" width="36" height="12" rx="3" fill="#BEE3F8"/>
<text x="574" y="430" text-anchor="middle" font-family="Arial,sans-serif" font-size="7.5" fill="#1D4ED8">10.0.146.41</text>
<rect x="598" y="420" width="42" height="12" rx="3" fill="#C6F6D5"/>
<text x="619" y="430" text-anchor="middle" font-family="Arial,sans-serif" font-size="7.5" fill="#276749">Running ✓</text>
<text x="556" y="450" font-family="Arial,sans-serif" font-size="7.5" fill="#6B7280">probe: GET /index.html :80</text>

<!-- Java Pod (node1) -->
<rect x="548" y="466" width="214" height="95" rx="7" fill="#FFFAF0" stroke="#F6AD55" stroke-width="1.2"/>
<!-- Spring Boot icon: green leaf -->
<rect x="556" y="474" width="28" height="28" rx="5" fill="#6DB33F"/>
<path d="M567,478 Q577,473 579,483 Q577,493 567,488 Q562,485 567,478 z" fill="white" opacity="0.9"/>
<text x="591" y="485" font-family="Arial,sans-serif" font-size="9" font-weight="bold" fill="#C05621">Java Backend Pod</text>
<text x="591" y="497" font-family="Arial,sans-serif" font-size="8.5" fill="#4B5563">Spring Boot :8080</text>
<text x="591" y="508" font-family="Arial,sans-serif" font-size="7.5" fill="#718096">java-crypto-mock:latest</text>
<rect x="556" y="518" width="36" height="12" rx="3" fill="#FEEBC8"/>
<text x="574" y="528" text-anchor="middle" font-family="Arial,sans-serif" font-size="7.5" fill="#7B341E">10.0.130.229</text>
<rect x="598" y="518" width="42" height="12" rx="3" fill="#C6F6D5"/>
<text x="619" y="528" text-anchor="middle" font-family="Arial,sans-serif" font-size="7.5" fill="#276749">Running ✓</text>
<text x="556" y="550" font-family="Arial,sans-serif" font-size="7.5" fill="#6B7280">probe: GET /api/member/me :8080</text>

<!-- Python Pod (node1 only) -->
<rect x="548" y="567" width="214" height="100" rx="7" fill="#FAF5FF" stroke="#B794F4" stroke-width="1.2"/>
<!-- Python icon: purple box with snake -->
<rect x="556" y="575" width="28" height="28" rx="5" fill="#7C3AED"/>
<path d="M566,580 Q575,578 575,586 Q575,592 566,592 Q560,592 560,586 Q560,580 566,580 z" fill="white" opacity="0.9"/>
<text x="591" y="586" font-family="Arial,sans-serif" font-size="9" font-weight="bold" fill="#6B21A8">Python Backend Pod</text>
<text x="591" y="598" font-family="Arial,sans-serif" font-size="8.5" fill="#4B5563">Flask :8200</text>
<text x="591" y="609" font-family="Arial,sans-serif" font-size="7.5" fill="#718096">python-crypto-mock:latest</text>
<rect x="556" y="619" width="36" height="12" rx="3" fill="#E9D8FD"/>
<text x="574" y="629" text-anchor="middle" font-family="Arial,sans-serif" font-size="7.5" fill="#553C9A">10.0.130.161</text>
<rect x="598" y="619" width="42" height="12" rx="3" fill="#C6F6D5"/>
<text x="619" y="629" text-anchor="middle" font-family="Arial,sans-serif" font-size="7.5" fill="#276749">Running ✓</text>
<text x="556" y="643" font-family="Arial,sans-serif" font-size="7.5" fill="#6B7280">replicas: 1 · yfinance stock data</text>
<text x="556" y="655" font-family="Arial,sans-serif" font-size="7.5" fill="#6B7280">probe: GET /api/stocks/list :8200</text>

<!-- replica badges for node1 -->
<rect x="548" y="673" width="214" height="18" rx="4" fill="#EBF8FF" stroke="#BEE3F8" stroke-width="1"/>
<text x="655" y="686" text-anchor="middle" font-family="Arial,sans-serif" font-size="7.5" fill="#1D4ED8">Frontend replicas: 2 (1 on each node)</text>
<rect x="548" y="695" width="214" height="18" rx="4" fill="#FFFAF0" stroke="#FED7AA" stroke-width="1"/>
<text x="655" y="708" text-anchor="middle" font-family="Arial,sans-serif" font-size="7.5" fill="#C05621">Java replicas: 2 (1 on each node)</text>
<rect x="548" y="717" width="214" height="18" rx="4" fill="#FAF5FF" stroke="#E9D8FD" stroke-width="1"/>
<text x="655" y="730" text-anchor="middle" font-family="Arial,sans-serif" font-size="7.5" fill="#6B21A8">Python replicas: 1 (node1 only)</text>

<!-- ── NODE 2 ── -->
<rect x="781" y="324" width="264" height="490" rx="8" fill="white" stroke="#CBD5E0" stroke-width="1.2" filter="url(#sh)"/>
<rect x="790" y="332" width="28" height="28" rx="5" fill="#FF9900"/>
<rect x="796" y="337" width="16" height="12" rx="2" fill="white" opacity="0.9"/>
<rect x="799" y="340" width="10" height="1.5" rx="0.5" fill="#FF9900"/>
<rect x="799" y="343" width="8" height="1.5" rx="0.5" fill="#FF9900"/>
<circle cx="804" cy="352" r="2" fill="white" opacity="0.9"/>
<text x="824" y="342" font-family="Arial,sans-serif" font-size="8.5" font-weight="bold" fill="#7B341E">Node 2 (t3.medium)</text>
<text x="824" y="353" font-family="Arial,sans-serif" font-size="7.5" fill="#718096">ip-10-0-171-208 · ap-northeast-2b</text>
<line x1="790" y1="366" x2="1037" y2="366" stroke="#E5E7EB" stroke-width="1"/>

<!-- Frontend Pod (node2) -->
<rect x="790" y="372" width="246" height="88" rx="7" fill="#EBF8FF" stroke="#63B3ED" stroke-width="1.2"/>
<rect x="798" y="380" width="28" height="28" rx="5" fill="#01A88D"/>
<text x="805" y="399" font-family="Arial,sans-serif" font-size="14" font-weight="bold" fill="white">N</text>
<text x="833" y="390" font-family="Arial,sans-serif" font-size="9" font-weight="bold" fill="#1D4ED8">Frontend Pod</text>
<text x="833" y="402" font-family="Arial,sans-serif" font-size="8.5" fill="#4B5563">Nginx :80 · Static HTML/JS</text>
<text x="833" y="413" font-family="Arial,sans-serif" font-size="7.5" fill="#718096">frontend-crypto-mock:latest</text>
<rect x="798" y="420" width="36" height="12" rx="3" fill="#BEE3F8"/>
<text x="816" y="430" text-anchor="middle" font-family="Arial,sans-serif" font-size="7.5" fill="#1D4ED8">10.0.174.36</text>
<rect x="840" y="420" width="42" height="12" rx="3" fill="#C6F6D5"/>
<text x="861" y="430" text-anchor="middle" font-family="Arial,sans-serif" font-size="7.5" fill="#276749">Running ✓</text>
<text x="798" y="450" font-family="Arial,sans-serif" font-size="7.5" fill="#6B7280">probe: GET /index.html :80</text>

<!-- Java Pod (node2) -->
<rect x="790" y="466" width="246" height="95" rx="7" fill="#FFFAF0" stroke="#F6AD55" stroke-width="1.2"/>
<rect x="798" y="474" width="28" height="28" rx="5" fill="#6DB33F"/>
<path d="M809,478 Q819,473 821,483 Q819,493 809,488 Q804,485 809,478 z" fill="white" opacity="0.9"/>
<text x="833" y="485" font-family="Arial,sans-serif" font-size="9" font-weight="bold" fill="#C05621">Java Backend Pod</text>
<text x="833" y="497" font-family="Arial,sans-serif" font-size="8.5" fill="#4B5563">Spring Boot :8080</text>
<text x="833" y="508" font-family="Arial,sans-serif" font-size="7.5" fill="#718096">java-crypto-mock:latest</text>
<rect x="798" y="518" width="36" height="12" rx="3" fill="#FEEBC8"/>
<text x="816" y="528" text-anchor="middle" font-family="Arial,sans-serif" font-size="7.5" fill="#7B341E">10.0.183.137</text>
<rect x="840" y="518" width="42" height="12" rx="3" fill="#C6F6D5"/>
<text x="861" y="528" text-anchor="middle" font-family="Arial,sans-serif" font-size="7.5" fill="#276749">Running ✓</text>
<text x="798" y="550" font-family="Arial,sans-serif" font-size="7.5" fill="#6B7280">probe: GET /api/member/me :8080</text>

<!-- Services section (node2 right part) -->
<rect x="790" y="568" width="246" height="234" rx="7" fill="#F0FFF4" stroke="#86EFAC" stroke-width="1.2"/>
<!-- K8s Service icon small -->
<rect x="798" y="576" width="22" height="22" rx="4" fill="#326CE5"/>
<circle cx="809" cy="587" r="6" fill="none" stroke="white" stroke-width="1.5"/>
<circle cx="809" cy="587" r="2.5" fill="white"/>
<text x="826" y="585" font-family="Arial,sans-serif" font-size="8.5" font-weight="bold" fill="#1D4ED8">Kubernetes Services</text>
<text x="826" y="596" font-family="Arial,sans-serif" font-size="8" fill="#4B5563">ClusterIP · namespace: crypto-mock</text>
<line x1="798" y1="604" x2="1028" y2="604" stroke="#86EFAC" stroke-width="1"/>

<!-- svc: frontend -->
<rect x="798" y="609" width="230" height="55" rx="5" fill="white" stroke="#BEE3F8" stroke-width="1"/>
<rect x="805" y="617" width="18" height="18" rx="3" fill="#326CE5"/>
<circle cx="814" cy="626" r="5" fill="none" stroke="white" stroke-width="1.2"/>
<circle cx="814" cy="626" r="2" fill="white"/>
<text x="829" y="624" font-family="Arial,sans-serif" font-size="8.5" font-weight="bold" fill="#1E3A8A">crypto-mock-frontend</text>
<text x="829" y="635" font-family="Arial,sans-serif" font-size="8" fill="#4B5563">ClusterIP · :80 → Pod :80</text>
<text x="829" y="646" font-family="Arial,sans-serif" font-size="7.5" fill="#718096">172.20.26.49</text>
<text x="905" y="646" font-family="Arial,sans-serif" font-size="7.5" fill="#718096">selector: app=crypto-mock-frontend</text>

<!-- svc: app (java) -->
<rect x="798" y="669" width="230" height="55" rx="5" fill="white" stroke="#FED7AA" stroke-width="1"/>
<rect x="805" y="677" width="18" height="18" rx="3" fill="#326CE5"/>
<circle cx="814" cy="686" r="5" fill="none" stroke="white" stroke-width="1.2"/>
<circle cx="814" cy="686" r="2" fill="white"/>
<text x="829" y="684" font-family="Arial,sans-serif" font-size="8.5" font-weight="bold" fill="#C05621">crypto-mock-app</text>
<text x="829" y="695" font-family="Arial,sans-serif" font-size="8" fill="#4B5563">ClusterIP · :80 → Pod :8080</text>
<text x="829" y="706" font-family="Arial,sans-serif" font-size="7.5" fill="#718096">172.20.77.170</text>
<text x="905" y="706" font-family="Arial,sans-serif" font-size="7.5" fill="#718096">selector: app=crypto-mock-app</text>

<!-- svc: python -->
<rect x="798" y="729" width="230" height="55" rx="5" fill="white" stroke="#E9D8FD" stroke-width="1"/>
<rect x="805" y="737" width="18" height="18" rx="3" fill="#326CE5"/>
<circle cx="814" cy="746" r="5" fill="none" stroke="white" stroke-width="1.2"/>
<circle cx="814" cy="746" r="2" fill="white"/>
<text x="829" y="744" font-family="Arial,sans-serif" font-size="8.5" font-weight="bold" fill="#6B21A8">crypto-mock-python</text>
<text x="829" y="755" font-family="Arial,sans-serif" font-size="8" fill="#4B5563">ClusterIP · :8200 → Pod :8200</text>
<text x="829" y="766" font-family="Arial,sans-serif" font-size="7.5" fill="#718096">172.20.96.213</text>
<text x="905" y="766" font-family="Arial,sans-serif" font-size="7.5" fill="#718096">selector: app=crypto-mock-python</text>

<!-- Ingress (ALB) resource -->
<rect x="539" y="745" width="234" height="62" rx="7" fill="#FFFAF0" stroke="#F6AD55" stroke-width="1.2"/>
<rect x="547" y="753" width="22" height="22" rx="4" fill="#FF9900"/>
<text x="548" y="762" font-family="Arial,sans-serif" font-size="7.5" fill="white" font-weight="bold"> ALB</text>
<text x="548" y="771" font-family="Arial,sans-serif" font-size="7" fill="white">ING</text>
<text x="576" y="761" font-family="Arial,sans-serif" font-size="8.5" font-weight="bold" fill="#7B341E">Ingress (crypto-mock-ingress)</text>
<text x="576" y="773" font-family="Arial,sans-serif" font-size="7.5" fill="#4B5563">ingressClassName: alb · scheme: internet-facing</text>
<text x="547" y="789" font-family="Arial,sans-serif" font-size="7.5" fill="#6B7280">/ → frontend:80  ·  /api → app:80</text>
<text x="547" y="800" font-family="Arial,sans-serif" font-size="7.5" fill="#6B7280">healthcheck-path: /index.html, /api/member/me</text>

<!-- ============================================================ External EC2 / MariaDB -->
<rect x="1094" y="366" width="390" height="242" rx="10" fill="#FFF5F5" stroke="#FC8181" stroke-width="1.5" stroke-dasharray="6,3" filter="url(#sh)"/>
<rect x="1094" y="357" width="155" height="18" rx="4" fill="#C53030"/>
<text x="1171" y="370" text-anchor="middle" font-family="Arial,sans-serif" font-size="9" font-weight="bold" fill="white">External Database (EC2)</text>

<!-- EC2 icon orange -->
<rect x="1107" y="378" width="42" height="42" rx="7" fill="#FF9900"/>
<rect x="1116" y="386" width="24" height="18" rx="3" fill="white" opacity="0.9"/>
<rect x="1120" y="390" width="16" height="2" rx="0.5" fill="#FF9900"/>
<rect x="1120" y="394" width="12" height="2" rx="0.5" fill="#FF9900"/>
<rect x="1120" y="398" width="14" height="2" rx="0.5" fill="#FF9900"/>
<circle cx="1128" cy="410" r="2.5" fill="white" opacity="0.9"/>
<text x="1157" y="390" font-family="Arial,sans-serif" font-size="10" font-weight="bold" fill="#7F1D1D">Amazon EC2</text>
<text x="1157" y="403" font-family="Arial,sans-serif" font-size="8.5" fill="#742A2A">t3.medium · ami: Amazon Linux 2023</text>
<text x="1157" y="416" font-family="Arial,sans-serif" font-size="8.5" fill="#742A2A">13.125.166.5 · ai-agent.pem</text>

<!-- MariaDB cylinder icon -->
<rect x="1107" y="428" width="42" height="44" rx="7" fill="#D97706"/>
<ellipse cx="1128" cy="438" rx="13" ry="5" fill="white" opacity="0.9"/>
<rect x="1115" y="438" width="26" height="18" fill="white" opacity="0.7"/>
<ellipse cx="1128" cy="456" rx="13" ry="5" fill="white" opacity="0.9"/>
<ellipse cx="1128" cy="446" rx="13" ry="4" fill="white" opacity="0.4"/>
<text x="1157" y="441" font-family="Arial,sans-serif" font-size="10" font-weight="bold" fill="#7F1D1D">MariaDB 11.4</text>
<text x="1157" y="454" font-family="Arial,sans-serif" font-size="8.5" fill="#742A2A">port 3306 · root / 12345678!!</text>
<text x="1157" y="467" font-family="Arial,sans-serif" font-size="8.5" fill="#742A2A">dbms.edumgt.co.kr</text>

<rect x="1107" y="480" width="370" height="50" rx="6" fill="#FFF0F0" stroke="#FEB2B2" stroke-width="1"/>
<text x="1117" y="493" font-family="Arial,sans-serif" font-size="8.5" fill="#7F1D1D">Schema: mockinv</text>
<text x="1117" y="505" font-family="Arial,sans-serif" font-size="8" fill="#9B1C1C">Tables: member · hold_crypto · upbit_market · crypto_rank</text>
<text x="1117" y="517" font-family="Arial,sans-serif" font-size="7.5" fill="#A0AEC0">dlm.mariadb.com/repo/mariadb-server/11.4 · rhel/9/x86_64</text>

<rect x="1107" y="538" width="370" height="62" rx="6" fill="#FFF5F5" stroke="#FED7D7" stroke-width="1"/>
<text x="1117" y="551" font-family="Arial,sans-serif" font-size="8" fill="#718096">JDBC URL: jdbc:mariadb://dbms.edumgt.co.kr:3306/mockinv</text>
<text x="1117" y="563" font-family="Arial,sans-serif" font-size="8" fill="#718096">     ?useUnicode=true&amp;characterEncoding=utf8</text>
<text x="1117" y="575" font-family="Arial,sans-serif" font-size="8" fill="#718096">SG: TCP 3306 inbound from EKS node SG</text>
<text x="1117" y="587" font-family="Arial,sans-serif" font-size="8" fill="#718096">SSH: ssh -i ai-agent.pem ec2-user@13.125.166.5</text>

<!-- ============================================================ ARROWS -->

<!-- Internet User → ALB -->
<line x1="90" y1="455" x2="213" y2="185" stroke="#1D4ED8" stroke-width="1.8" stroke-dasharray="5,3" marker-end="url(#ab)"/>
<text x="118" y="400" font-family="Arial,sans-serif" font-size="8.5" fill="#1D4ED8" transform="rotate(-57,118,400)">HTTP :80</text>

<!-- Developer → GitHub -->
<line x1="91" y1="130" x2="91" y2="134" stroke="#4B5563" stroke-width="1.5" marker-end="url(#a)"/>

<!-- GitHub → GH Actions -->
<line x1="91" y1="197" x2="91" y2="199" stroke="#4B5563" stroke-width="1.5" marker-end="url(#a)"/>

<!-- GH Actions → ECR (docker push) -->
<path d="M162,230 C420,200 800,155 1100,120" stroke="#D97706" stroke-width="1.5" stroke-dasharray="6,3" fill="none" marker-end="url(#ao)"/>
<text x="580" y="178" font-family="Arial,sans-serif" font-size="8.5" fill="#B45309" transform="rotate(-4,580,178)">docker push (×3 images)</text>

<!-- GH Actions → kubectl apply -->
<path d="M162,250 C350,280 400,285 520,295" stroke="#15803D" stroke-width="1.5" stroke-dasharray="6,3" fill="none" marker-end="url(#ag)"/>
<text x="310" y="270" font-family="Arial,sans-serif" font-size="8" fill="#166534">kubectl apply -k</text>

<!-- ALB → Frontend Service (/ route) -->
<path d="M328,245 C400,330 700,580 785,625" stroke="#1D4ED8" stroke-width="2" fill="none" marker-end="url(#ab)"/>
<text x="490" y="410" font-family="Arial,sans-serif" font-size="8" fill="#1D4ED8" transform="rotate(53,490,410)">/ route</text>

<!-- ALB → Java Service (/api route) -->
<path d="M380,245 C480,350 700,640 785,685" stroke="#D97706" stroke-width="2" fill="none" marker-end="url(#ao)"/>
<text x="560" y="470" font-family="Arial,sans-serif" font-size="8" fill="#B45309" transform="rotate(52,560,470)">/api route</text>

<!-- LBC provisions ALB -->
<line x1="638" y1="165" x2="438" y2="165" stroke="#3B82F6" stroke-width="1.5" stroke-dasharray="4,3" marker-end="url(#ab)"/>
<text x="510" y="159" font-family="Arial,sans-serif" font-size="8" fill="#1D4ED8">provisions</text>

<!-- Frontend Svc → Frontend Pods -->
<line x1="785" y1="638" x2="762" y2="415" stroke="#1D4ED8" stroke-width="1.2" stroke-dasharray="3,3" marker-end="url(#ab)"/>
<line x1="793" y1="638" x2="793" y2="460" stroke="#1D4ED8" stroke-width="1.2" stroke-dasharray="3,3"/>

<!-- Java Svc → Java Pods -->
<line x1="785" y1="698" x2="762" y2="508" stroke="#D97706" stroke-width="1.2" stroke-dasharray="3,3" marker-end="url(#ao)"/>
<line x1="793" y1="698" x2="793" y2="561" stroke="#D97706" stroke-width="1.2" stroke-dasharray="3,3"/>

<!-- Python Svc → Python Pod -->
<line x1="785" y1="756" x2="762" y2="617" stroke="#7C3AED" stroke-width="1.2" stroke-dasharray="3,3" marker-end="url(#ap)"/>

<!-- Java Pod → Python Svc (internal) -->
<path d="M656,555 C680,558 720,600 785,745" stroke="#7C3AED" stroke-width="1.5" stroke-dasharray="4,2" fill="none" marker-end="url(#ap)"/>
<text x="700" y="600" font-family="Arial,sans-serif" font-size="7.5" fill="#6B21A8">http://crypto-mock-python:8200</text>

<!-- Java Pod → MariaDB (JDBC) -->
<path d="M762,510 C900,490 1000,490 1094,480" stroke="#DC2626" stroke-width="2" stroke-dasharray="6,3" fill="none" marker-end="url(#ar)"/>
<text x="910" y="477" font-family="Arial,sans-serif" font-size="8.5" fill="#DC2626">JDBC · dbms.edumgt.co.kr:3306</text>

<!-- ECR → Pods (image pull) -->
<path d="M1094,128 C950,150 850,200 755,360" stroke="#D97706" stroke-width="1" stroke-dasharray="3,4" fill="none" marker-end="url(#ao)"/>
<text x="950" y="235" font-family="Arial,sans-serif" font-size="8" fill="#B45309" transform="rotate(-25,950,235)">image pull via IRSA</text>

<!-- ============================================================ LEGEND -->
<rect x="214" y="1004" width="840" height="28" rx="6" fill="#F1F5F9" stroke="#CBD5E0" stroke-width="1"/>
<line x1="224" y1="1018" x2="245" y2="1018" stroke="#1D4ED8" stroke-width="2"/>
<text x="250" y="1022" font-family="Arial,sans-serif" font-size="8.5" fill="#4B5563">HTTP routing</text>
<line x1="330" y1="1018" x2="351" y2="1018" stroke="#D97706" stroke-width="2"/>
<text x="356" y="1022" font-family="Arial,sans-serif" font-size="8.5" fill="#4B5563">API / image push</text>
<line x1="455" y1="1018" x2="476" y2="1018" stroke="#DC2626" stroke-width="2" stroke-dasharray="5,2"/>
<text x="481" y="1022" font-family="Arial,sans-serif" font-size="8.5" fill="#4B5563">JDBC (external)</text>
<line x1="570" y1="1018" x2="591" y2="1018" stroke="#7C3AED" stroke-width="2" stroke-dasharray="4,2"/>
<text x="596" y="1022" font-family="Arial,sans-serif" font-size="8.5" fill="#4B5563">Internal svc call</text>
<line x1="690" y1="1018" x2="711" y2="1018" stroke="#15803D" stroke-width="2" stroke-dasharray="6,3"/>
<text x="716" y="1022" font-family="Arial,sans-serif" font-size="8.5" fill="#4B5563">kubectl deploy</text>
<rect x="792" y="1012" width="36" height="14" rx="3" fill="#059669"/>
<text x="810" y="1023" text-anchor="middle" font-family="Arial,sans-serif" font-size="8" font-weight="bold" fill="white">IRSA</text>
<text x="834" y="1022" font-family="Arial,sans-serif" font-size="8.5" fill="#4B5563">IAM Role for Service Account</text>
</svg>
